<?xml version="1.0" encoding="UTF-8" standalone="no"?>
<!-- Created with Inkscape (http://www.inkscape.org/) -->

<svg
   width="40.576714mm"
   height="52.005695mm"
   viewBox="0 0 40.576714 52.005695"
   version="1.1"
   id="svg1"
   xml:space="preserve"
   inkscape:version="1.3.2 (091e20e, 2023-11-25)"
   xmlns:inkscape="http://www.inkscape.org/namespaces/inkscape"
   xmlns:sodipodi="http://sodipodi.sourceforge.net/DTD/sodipodi-0.dtd"
   xmlns="http://www.w3.org/2000/svg"
   xmlns:svg="http://www.w3.org/2000/svg"><sodipodi:namedview
     id="namedview1"
     pagecolor="#ffffff"
     bordercolor="#000000"
     borderopacity="0.25"
     inkscape:showpageshadow="2"
     inkscape:pageopacity="0.0"
     inkscape:pagecheckerboard="0"
     inkscape:deskcolor="#d1d1d1"
     inkscape:document-units="mm"
     inkscape:zoom="2.3602429"
     inkscape:cx="67.577791"
     inkscape:cy="90.668635"
     inkscape:window-width="1728"
     inkscape:window-height="1051"
     inkscape:window-x="0"
     inkscape:window-y="38"
     inkscape:window-maximized="1"
     inkscape:current-layer="layer1" /><defs
     id="defs1" /><g
     inkscape:label="Layer 1"
     inkscape:groupmode="layer"
     id="layer1"
     transform="translate(-95.581069,-103.11221)"><path
       style="fill:#000000"
       d="m 111.99056,154.90566 c -2.9868,-0.23151 -5.26258,-0.70612 -6.56984,-1.37012 -0.55748,-0.28317 -1.9267,-0.74836 -3.04271,-1.03377 -8.799136,-2.25028 -9.120406,-6.71148 -0.58164,-8.07689 0.58634,-0.0938 1.06607,-0.20142 1.06607,-0.23924 0,-0.0378 -0.3526,-0.82628 -0.78355,-1.75212 -2.932286,-6.29965 -1.44302,-9.98254 4.05257,-10.02178 1.14956,-0.008 1.27493,-0.38284 0.40244,-1.20259 -1.09047,-1.02456 -1.70464,-2.47319 -1.84082,-4.07747 -0.17205,-2.02686 0.41888,-4.30216 1.77612,-6.28466 l 0.94635,-1.38232 -0.78612,-0.99893 c -0.43236,-0.54942 -1.0425,-1.50495 -1.35586,-2.12341 -0.31337,-0.61847 -0.74405,-1.12448 -0.95708,-1.12448 -2.51596,0 -2.87999,-4.55049 -0.6332,-7.91508 4.2139,-6.31037 9.47471,-2.47401 9.49335,6.92289 l 0.005,2.3151 h 1.53358 1.53358 l -0.10336,-2.44739 c -0.28657,-6.78534 3.04148,-11.59458 7.55518,-10.91771 5.47884,0.82161 5.58068,10.04131 0.1721,15.58099 l -1.44419,1.47919 0.68639,1.0372 c 2.09823,3.17064 1.92244,7.77685 -0.37933,9.93968 l -0.83153,0.78134 2.81725,0.47436 c 1.86322,0.31373 3.27588,0.72117 4.1716,1.2032 1.28765,0.69294 1.41051,0.71106 2.49443,0.36796 2.06535,-0.65376 4.28356,0.68966 4.71698,2.85677 0.50301,2.51506 -2.60795,5.64151 -6.61838,6.65135 -1.56014,0.39285 -1.54994,0.66553 0.0337,0.90145 8.56286,1.2756 8.26987,5.84102 -0.51734,8.0613 -1.12128,0.28331 -2.3119,0.69117 -2.64583,0.90636 -0.94756,0.61061 -3.51261,1.1769 -6.69256,1.47753 -3.12562,0.29549 -3.98984,0.29676 -7.67292,0.0113 z m 6.15157,-0.99103 c -1.27331,-0.0485 -3.35691,-0.0485 -4.63021,0 -1.27331,0.0485 -0.23151,0.0882 2.3151,0.0882 2.54662,0 3.58841,-0.0397 2.31511,-0.0882 z m -7.40525,-0.24938 c -0.25296,-0.0662 -0.72921,-0.0686 -1.05833,-0.005 -0.32912,0.0633 -0.12215,0.11747 0.45993,0.12041 0.58209,0.003 0.85136,-0.0488 0.5984,-0.11507 z m 11.37708,0 c -0.25296,-0.0662 -0.72921,-0.0686 -1.05833,-0.005 -0.32912,0.0633 -0.12215,0.11747 0.45993,0.12041 0.58209,0.003 0.85137,-0.0488 0.5984,-0.11507 z m -0.33381,-1.41127 c 13.24475,-1.22737 17.39506,-4.70516 8.21648,-6.88507 l -2.23082,-0.52982 -1.27304,1.35534 c -1.60663,1.71049 -1.61289,1.73395 -0.51739,1.93947 1.22662,0.23011 1.70694,0.81239 1.26021,1.52772 -0.32071,0.51353 -0.28952,0.52676 0.80967,0.34357 3.11146,-0.51857 5.9765,-1.8619 5.6707,-2.65882 -0.0836,-0.21778 0.003,-0.29855 0.22804,-0.21227 2.84388,1.0913 -2.43238,3.33129 -9.91327,4.20861 -12.35584,1.44901 -29.787656,-1.16052 -26.918486,-4.02969 0.41536,-0.41536 0.45854,-0.41764 0.45854,-0.0242 0,0.65914 1.21353,1.47638 3.013056,2.0291 2.06805,0.6352 4.19768,0.97153 3.53537,0.55833 -0.92591,-0.57765 0.12655,-1.85007 1.53027,-1.85007 0.58348,0 0.46162,-0.22583 -0.9843,-1.82417 l -1.23996,-1.37068 -2.13328,0.54468 c -12.603176,3.21787 3.09955,8.48932 20.48821,6.87794 z m 0.64774,-1.74601 c 2.55938,-0.46007 4.09611,-1.02549 3.8536,-1.41788 -0.27646,-0.44732 -1.0451,-0.30482 -1.39723,0.25904 -0.38427,0.61531 -0.91053,0.71676 -0.68625,0.13229 0.19484,-0.50775 -0.15315,-0.51477 -0.53661,-0.0108 -0.96851,1.27282 -14.96483,1.27282 -15.93333,0 -0.38346,-0.50394 -0.73146,-0.49692 -0.53661,0.0108 0.21796,0.56801 -0.26754,0.4896 -0.90297,-0.14583 -0.3642,-0.3642 -0.72105,-0.48609 -1.08497,-0.37059 -4.13541,1.31253 10.97579,2.6662 17.22437,1.54297 z m -3.63733,-1.18916 c 5.02364,-1.05663 9.09799,-5.44333 10.10505,-10.87976 0.31016,-1.6743 -0.50592,-0.93107 -0.88177,0.80306 -0.62401,2.87912 -2.38255,5.98938 -4.07032,7.19903 -0.46225,0.3313 -0.69163,0.44247 -0.50973,0.24705 0.72163,-0.77527 0.27481,-0.78436 -0.60452,-0.0123 -1.33921,1.17585 -1.42539,1.01273 -0.17922,-0.3392 0.58827,-0.63821 1.26706,-1.54224 1.50841,-2.00897 0.24136,-0.46672 0.50434,-0.78308 0.58441,-0.70301 0.0801,0.0801 -0.11214,0.58239 -0.42713,1.11627 -0.79454,1.34663 -0.48535,1.45751 0.38727,0.13889 1.43142,-2.16303 2.71519,-6.88393 1.77349,-6.52179 -0.25466,0.0979 -1.65364,0.35788 -3.10885,0.57766 -1.45521,0.21978 -3.15465,0.54506 -3.77654,0.72285 -0.81438,0.23282 -1.56392,0.25161 -2.67924,0.0671 -1.40559,-0.23246 -1.61591,-0.2031 -2.27841,0.31802 -0.94732,0.74516 -2.20633,0.7305 -3.3401,-0.0389 -0.62311,-0.42285 -1.64001,-0.71558 -3.27806,-0.94362 -1.30611,-0.18183 -3.20817,-0.60973 -4.22682,-0.95088 -2.20819,-0.73954 -2.04954,-0.83152 -1.58742,0.92033 1.97795,7.49805 9.03805,11.87643 16.5895,10.28813 z m 14.69768,-8.61355 c 3.24661,-2.43032 1.25084,-7.15857 -2.42604,-5.74762 -0.87291,0.33497 -0.48447,1.11181 0.5414,1.08273 2.67906,-0.0759 2.87495,3.0101 0.33129,5.21925 -1.34209,1.1656 -0.19966,0.75789 1.55335,-0.55436 z m 0.59503,-2.80377 c 0,-0.89849 -0.86286,-2.04611 -1.53841,-2.04611 -0.17252,0 -0.31367,-0.11907 -0.31367,-0.26459 0,-0.61327 1.93595,0.20577 2.21689,0.9379 0.25423,0.6625 0.19421,1.92284 -0.10022,2.10481 -0.15649,0.0967 -0.26459,-0.20236 -0.26459,-0.73201 z m -3.06004,2.99289 c 1.94586,-1.33878 2.49584,-3.65135 0.96367,-4.05202 -1.19665,-0.31294 -1.50582,0.0208 -1.98467,2.14208 -0.25207,1.11667 -0.51844,2.17914 -0.59193,2.36104 -0.22293,0.55176 0.41439,0.37352 1.61293,-0.4511 z m -17.49132,-2.19473 c 0.3863,-0.55378 0.41624,-0.55932 0.42915,-0.0794 0.0105,0.39115 0.088,0.44177 0.32053,0.20929 1.55453,-1.55453 -0.88518,-5.35543 -3.43753,-5.35543 -1.98373,0 -4.42295,2.96064 -2.74183,3.32793 0.39234,0.0857 0.8542,0.19864 1.02636,0.25094 0.17216,0.0523 0.39021,-0.25634 0.48455,-0.68586 0.205,-0.93335 0.55077,-0.80688 0.79158,0.28952 0.40607,1.84882 2.36838,3.1308 3.12719,2.04299 z m 2.20692,-0.11025 c -0.097,-0.097 -0.17639,-0.0176 -0.17639,0.17639 0,0.19403 0.0794,0.27341 0.17639,0.17639 0.097,-0.097 0.097,-0.25576 0,-0.35278 z m 4.05123,-1.13272 c 0.18229,-0.4401 0.27881,-1.15878 0.21448,-1.59708 -0.14799,-1.00834 0.69162,-0.40496 0.96782,0.6955 0.18982,0.75629 0.85198,0.69607 0.72253,-0.0657 -0.14535,-0.85544 -1.34994,-2.48164 -2.24044,-3.0246 -2.96546,-1.80814 -5.08186,1.45677 -2.81358,4.34042 0.64775,0.82348 1.14332,0.91474 0.90594,0.16683 -0.24308,-0.76589 0.25647,-0.6509 0.61784,0.14222 0.38441,0.84367 1.12821,0.54276 1.62541,-0.65758 z m -9.90671,0.79523 c -0.0847,-0.13711 -0.71685,-0.32538 -1.40468,-0.41838 -6.61653,-0.89457 -8.15254,-2.69176 -3.07668,-3.59983 2.19054,-0.39189 4.01643,-1.48133 1.95837,-1.16848 -5.18063,0.7875 -7.362886,2.27773 -5.24304,3.58038 1.76273,1.0832 8.27524,2.43023 7.76603,1.60631 z m 16.31822,-0.5755 c 5.71315,-1.54158 3.89145,-3.86596 -3.62767,-4.62866 -1.70686,-0.17314 -1.82361,-0.15342 -1.48896,0.25154 0.19972,0.24168 0.63061,0.43942 0.95753,0.43942 7.36862,0 8.39091,2.71785 1.46671,3.89941 -1.46029,0.24919 -2.65507,0.56228 -2.65507,0.69577 0,0.35366 2.9396,-0.008 5.34746,-0.65748 z m -10.3845,-5.29509 c 0.63118,-0.46666 1.02193,-0.54212 2.27075,-0.43856 5.65735,0.46915 7.15415,-7.62359 2.22903,-12.0517 -2.07755,-1.86789 -1.02549,-9.1711 1.32114,-9.1711 1.16417,0 0.7237,3.3174 -0.79921,6.01927 -1.06906,1.89667 -0.73698,1.75216 0.55026,-0.23946 0.57891,-0.89568 1.05257,-1.48508 1.05257,-1.30977 0,0.47785 -0.7821,1.93184 -1.40613,2.6141 -0.55048,0.60185 -0.55048,0.60185 -0.011,1.14133 2.31909,2.31908 6.73353,-8.95193 4.86996,-12.43405 -3.02695,-5.65591 -8.84465,0.38513 -8.40456,8.72722 l 0.14961,2.8361 -0.97238,-0.26855 c -0.53481,-0.1477 -1.7611,-0.21214 -2.72508,-0.1432 l -1.7527,0.12535 -0.13485,-3.46802 c -0.29931,-7.69747 -2.95831,-11.13933 -6.14431,-7.95333 -2.07119,2.07119 -3.16183,5.82641 -2.02295,6.96529 1.60532,1.60532 5.18962,-0.24749 6.38105,-3.29852 l 0.50692,-1.29814 0.0188,1.5875 c 0.0104,0.87313 0.12346,2.06375 0.25131,2.64584 0.76851,3.4987 0.64893,5.09693 -0.42278,5.65058 -6.22875,3.21784 -6.20209,12.01808 0.041,13.53898 0.58432,0.14234 1.36006,0.36487 1.72386,0.4945 1.21705,0.43365 2.62666,0.322 3.42963,-0.27166 z m -2.63588,-1.81761 c -0.33917,-0.21919 -0.32955,-0.25707 0.0661,-0.26053 0.56791,-0.005 0.5971,-0.35715 0.0661,-0.7978 -0.70085,-0.58166 -0.46954,-1.05834 0.51355,-1.05834 1.05503,0 1.48202,0.4669 0.84979,0.92921 -0.55231,0.40386 -0.56626,0.92288 -0.0248,0.92288 0.22687,0 0.33891,0.11906 0.24897,0.26458 -0.20743,0.33562 -1.20045,0.33562 -1.71979,0 z m 4.96772,-2.27359 c -0.6079,-1.33419 1.00643,-2.92895 1.82781,-1.80565 0.46944,0.642 0.43927,1.56914 -0.0676,2.07597 -0.62768,0.62768 -1.40552,0.50822 -1.76025,-0.27032 z m -9.74341,-0.1323 c -0.38396,-0.71744 -0.12085,-1.73709 0.53942,-2.09045 1.03403,-0.5534 2.137,1.46269 1.27294,2.32676 -0.50195,0.50195 -1.48591,0.37365 -1.81236,-0.23631 z m 12.17636,-3.95444 c -0.21407,-0.13539 -0.7464,-0.2498 -1.18296,-0.25425 -0.61051,-0.006 -0.70213,-0.0673 -0.39688,-0.26459 0.56021,-0.36203 1.13899,-0.32511 1.73495,0.11066 0.58108,0.4249 0.44356,0.78678 -0.15511,0.40818 z m -12.53632,-0.55722 c 0.17198,-0.27828 1.43172,-0.30272 1.43088,-0.0278 -3.3e-4,0.10914 -0.35387,0.21093 -0.78564,0.2262 -0.43177,0.0153 -0.72213,-0.074 -0.64524,-0.19844 z m 12.68715,-1.26693 c -0.0959,-0.1552 -0.53159,-0.28219 -0.96815,-0.28219 -0.46179,0 -0.72536,-0.11065 -0.63023,-0.26458 0.24943,-0.40359 1.34838,-0.31524 1.7251,0.13869 0.18408,0.22179 0.27011,0.46784 0.19118,0.54677 -0.0789,0.0789 -0.22198,0.0165 -0.3179,-0.13869 z m -12.61233,-0.36494 c 0.40099,-0.49297 1.23381,-0.59467 1.48896,-0.18183 0.0899,0.14552 -0.0719,0.26458 -0.35962,0.26458 -0.28773,0 -0.74124,0.0818 -1.00781,0.18183 -0.42664,0.16007 -0.44119,0.12839 -0.12153,-0.26458 z m 0.87045,-3.68756 c 0.83859,-0.67864 -1.07659,-3.6058 -2.12766,-3.25191 l -0.83931,0.2826 0.8667,1.29993 c 1.51225,2.26818 1.43561,2.20727 2.10027,1.66938 z"
       id="path1"
       sodipodi:nodetypes="sssssscssscssssccccssscsscsssssssssssssssccccccccccsscssssscssssssscssssssssssscscssssssssssssscsssssccsssssssssssssssssscssssssssssssssssssssssssssscssssscssssssssssscsscsssscccssssscscsssscccssccssssscssscssccssssssssssssscss" /></g></svg>
